<svg width="50" height="50" viewBox="0 0 50 50" fill="none" xmlns="http://www.w3.org/2000/svg">
<path fill-rule="evenodd" clip-rule="evenodd" d="M25.2257 0C21.7024 2.76967e-07 18.8462 2.75969 18.8462 6.16393L23.0054 34.5965L11.9337 26.4417C9.44234 24.0345 4.35986 24.0345 1.86851 26.4417C-0.622837 28.8489 -0.622837 32.7517 1.86851 35.1588L20.7147 48.1946C23.206 50.6018 27.2453 50.6018 29.7367 48.1946L48.1315 35.1588C50.6228 32.7516 50.6228 28.8488 48.1315 26.4417C45.6401 24.0345 41.6009 24.0345 39.1095 26.4417L27.0315 34.5965L31.6052 6.16393C31.6052 2.75969 28.749 -2.76966e-07 25.2257 0Z" fill="url(#paint0_linear_386_2)"/>
<defs>
<linearGradient id="paint0_linear_386_2" x1="25" y1="-46.0465" x2="25.0149" y2="78.0881" gradientUnits="userSpaceOnUse">
<stop offset="0.139432" stop-color="#D4CDFF"/>
<stop offset="0.816667" stop-color="#A398E7"/>
</linearGradient>
</defs>
</svg>
