<svg width="27" height="30" viewBox="0 0 27 30" fill="none" xmlns="http://www.w3.org/2000/svg">
<path fill-rule="evenodd" clip-rule="evenodd" d="M8.9598 6.25307C7.93697 6.39172 7.39532 6.64532 7.00953 7.03429C6.62374 7.42325 6.37221 7.96935 6.23469 9.0006C6.09313 10.0622 6.09091 11.4691 6.09091 13.4865V20.5135C6.09091 22.5308 6.09313 23.9378 6.23469 24.9994C6.37221 26.0306 6.62374 26.5767 7.00954 26.9657C7.39533 27.3547 7.93697 27.6083 8.95981 27.7469C10.0127 27.8897 11.4082 27.8919 13.4091 27.8919H17.5909C19.5918 27.8919 20.9872 27.8897 22.0402 27.7469C23.063 27.6083 23.6046 27.3547 23.9904 26.9657C24.3763 26.5767 24.6278 26.0306 24.7653 24.9994C24.9069 23.9378 24.9091 22.5308 24.9091 20.5135V13.4865C24.9091 11.4691 24.9069 10.0622 24.7653 9.00061C24.6278 7.96936 24.3762 7.42326 23.9904 7.03429C23.6046 6.64532 23.063 6.39172 22.0402 6.25307C20.9872 6.11035 19.5918 6.10811 17.5909 6.10811H13.4091C11.4082 6.10811 10.0127 6.11035 8.9598 6.25307ZM13.3326 4H17.6674C19.5737 3.99997 21.1103 3.99995 22.3188 4.16376C23.5735 4.33384 24.6299 4.69769 25.4689 5.54362C26.308 6.38956 26.6689 7.45468 26.8376 8.7197C27.0001 9.93814 27 11.4873 27 13.4094V20.5906C27 22.5126 27.0001 24.0618 26.8376 25.2803C26.6689 26.5453 26.308 27.6104 25.4689 28.4563C24.6299 29.3023 23.5735 29.6662 22.3188 29.8362C21.1103 30.0001 19.5737 30 17.6674 30H13.3326C11.4263 30 9.88969 30.0001 8.68119 29.8362C7.42649 29.6662 6.37006 29.3023 5.53103 28.4563C4.692 27.6104 4.33112 26.5453 4.16243 25.2803C3.99995 24.0618 3.99997 22.5126 4 20.5906V13.4094C3.99997 11.4873 3.99995 9.93814 4.16243 8.7197C4.33112 7.45468 4.692 6.38957 5.53103 5.54363C6.37007 4.69769 7.4265 4.33384 8.68119 4.16376C9.88969 3.99995 11.4263 3.99997 13.3326 4Z" fill="#543FD3"/>
<path fill-rule="evenodd" clip-rule="evenodd" d="M6.21815 2.30453C4.81573 2.49463 4.00774 2.85113 3.4178 3.44591C3.4178 3.44591 3.41781 3.44591 3.4178 3.44591M3.4178 3.44591C2.82788 4.0407 2.47427 4.85534 2.28572 6.2693C2.09313 7.71359 2.09091 9.61744 2.09091 12.2973V20.7297C2.09091 22.4762 3.4951 23.8919 5.22727 23.8919V26C2.34035 26 9.26688e-07 23.6405 9.26688e-07 20.7297L4.48117e-07 12.218C-2.16459e-05 9.63521 -3.92827e-05 7.58946 0.213461 5.9884C0.433184 4.34067 0.896134 3.00702 1.9393 1.95526C2.98248 0.903512 4.30526 0.436747 5.93954 0.215217C7.52754 -3.96058e-05 9.5566 -2.1824e-05 12.1183 4.51803e-07L17.7727 9.34311e-07C20.6597 9.34311e-07 23 2.3596 23 5.27027H20.9091C20.9091 3.52385 19.5049 2.10811 17.7727 2.10811H12.197C9.53898 2.10811 7.65065 2.11035 6.21815 2.30453" fill="#543FD3"/>
</svg>
