<svg width="60" height="64" viewBox="0 0 60 64" fill="none" xmlns="http://www.w3.org/2000/svg">
<path fill-rule="evenodd" clip-rule="evenodd" d="M6.17212 63.2412L7.32128 60.47C8.14248 60.8106 9.04533 61 10 61H12.9167V64H10C8.64408 64 7.3512 63.7301 6.17212 63.2412ZM42.0833 64V61H45C45.9547 61 46.8575 60.8106 47.6787 60.47L48.8279 63.2412C47.6488 63.7301 46.3559 64 45 64H42.0833ZM55 19.1667H52V16C52 15.0453 51.8106 14.1425 51.47 13.3213L54.2412 12.1721C54.7301 13.3512 55 14.6441 55 16V19.1667ZM12.9167 6H10C8.64408 6 7.3512 6.26986 6.17212 6.7588L7.32128 9.52998C8.14248 9.18945 9.04533 9 10 9H12.9167V6ZM0 50.8333H3V54C3 54.9547 3.18945 55.8575 3.52998 56.6787L0.758805 57.8279C0.269861 56.6488 0 55.3559 0 54V50.8333ZM0 44.5H3V38.1667H0V44.5ZM0 31.8333H3V25.5H0V31.8333ZM0 19.1667H3V16C3 15.0453 3.18945 14.1425 3.52998 13.3213L0.758805 12.1721C0.269862 13.3512 0 14.6441 0 16V19.1667ZM18.75 6V9H24.5833V6H18.75ZM30.4167 6V9H36.25V6H30.4167ZM42.0833 6V9H45C45.9547 9 46.8575 9.18945 47.6787 9.52998L48.8279 6.75881C47.6488 6.26986 46.3559 6 45 6H42.0833ZM55 25.5H52V31.8333H55V25.5ZM55 38.1667H52V44.5H55V38.1667ZM55 50.8333H52V54C52 54.9547 51.8106 55.8575 51.47 56.6787L54.2412 57.8279C54.7301 56.6488 55 55.3559 55 54V50.8333ZM36.25 64V61H30.4167V64H36.25ZM24.5833 64V61H18.75V64H24.5833Z" fill="#AEA1FF"/>
<path fill-rule="evenodd" clip-rule="evenodd" d="M16.5789 0C12.9455 0 10 2.98477 10 6.66667V49.3333C10 53.0152 12.9455 56 16.5789 56H53.421C57.0545 56 60 53.0152 60 49.3333V6.66667C60 2.98477 57.0545 0 53.421 0H16.5789ZM21.8421 14.6667C20.3887 14.6667 19.2105 15.8606 19.2105 17.3333C19.2105 18.8061 20.3887 20 21.8421 20H48.1579C49.6113 20 50.7895 18.8061 50.7895 17.3333C50.7895 15.8606 49.6113 14.6667 48.1579 14.6667H21.8421ZM19.2105 28C19.2105 26.5272 20.3887 25.3333 21.8421 25.3333H48.1579C49.6113 25.3333 50.7895 26.5272 50.7895 28C50.7895 29.4728 49.6113 30.6667 48.1579 30.6667H21.8421C20.3887 30.6667 19.2105 29.4728 19.2105 28ZM21.8421 36C20.3887 36 19.2105 37.1939 19.2105 38.6667C19.2105 40.1394 20.3887 41.3333 21.8421 41.3333H36.3158C37.7692 41.3333 38.9474 40.1394 38.9474 38.6667C38.9474 37.1939 37.7692 36 36.3158 36H21.8421Z" fill="#543FD3"/>
</svg>
