<svg width="2453" height="3073" viewBox="0 0 2453 3073" fill="none" xmlns="http://www.w3.org/2000/svg">
<path fill-rule="evenodd" clip-rule="evenodd" d="M1385.86 2687.23C1252.67 2657.34 1109.92 2620.74 1018.9 2455.07C927.879 2289.39 973.55 2149.28 1019.75 2020.83L1019.75 2020.83C1022.61 2012.9 1025.48 2005.04 1028.32 1997.26C1048.03 1943.24 1066.54 1892.48 1073.14 1839.63C1080.64 1779.48 1072.67 1716.59 1032.63 1643.67L1041.39 1638.86C1082.48 1713.67 1090.82 1778.68 1083.06 1840.87C1076.31 1894.93 1057.37 1946.84 1037.69 2000.75C1034.85 2008.53 1032 2016.35 1029.16 2024.22C983.006 2152.53 938.945 2288.77 1027.66 2450.25C1116.38 2611.74 1254.99 2647.61 1388.05 2677.47C1395.94 2679.24 1403.81 2680.97 1411.63 2682.69C1467.98 2695.08 1522.26 2707.01 1571.78 2730.51C1628.46 2757.4 1678.9 2799.4 1720.01 2874.2L1711.25 2879.01C1671.18 2806.11 1622.33 2765.56 1567.5 2739.54C1519.08 2716.57 1466 2704.89 1409.52 2692.47C1401.7 2690.75 1393.81 2689.01 1385.86 2687.23L1385.86 2687.23ZM1168.82 2372.7C1257.54 2534.19 1396.15 2570.06 1529.2 2599.92C1537.1 2601.69 1544.96 2603.42 1552.79 2605.14C1609.14 2617.53 1663.42 2629.46 1712.94 2652.96C1769.62 2679.85 1820.06 2721.85 1861.17 2796.65L1852.41 2801.46C1812.33 2728.56 1763.49 2688.01 1708.65 2661.99C1660.24 2639.02 1607.16 2627.34 1550.68 2614.92C1542.86 2613.2 1534.97 2611.46 1527.02 2609.68L1527.02 2609.68C1393.83 2579.79 1251.07 2543.19 1160.05 2377.52C1069.04 2211.84 1114.71 2071.73 1160.91 1943.29L1160.91 1943.28C1163.67 1935.62 1166.44 1928.03 1169.18 1920.5C1188.98 1866.17 1207.6 1815.1 1214.17 1761.92C1221.62 1701.69 1213.6 1638.71 1173.57 1565.78L1182.34 1560.97C1223.41 1635.79 1231.8 1700.89 1224.1 1763.15C1217.37 1817.55 1198.33 1869.76 1178.56 1923.97C1175.82 1931.49 1173.06 1939.06 1170.32 1946.67C1124.16 2074.98 1080.1 2211.22 1168.82 2372.7ZM1309.97 2295.16C1398.69 2456.64 1537.3 2492.52 1670.34 2522.38C1678.25 2524.16 1686.12 2525.89 1693.95 2527.61C1750.29 2539.99 1804.57 2551.93 1854.08 2575.42C1910.76 2602.31 1961.2 2644.31 2002.29 2719.12L1993.53 2723.93C1953.47 2651.02 1904.63 2610.47 1849.8 2584.45C1801.39 2561.48 1748.32 2549.81 1691.85 2537.39C1684.01 2535.66 1676.12 2533.93 1668.16 2532.14L1668.15 2532.14C1534.98 2502.24 1392.23 2465.64 1301.21 2299.97C1210.19 2134.3 1255.86 1994.18 1302.05 1865.75L1302.05 1865.74C1304.81 1858.07 1307.58 1850.47 1310.33 1842.94C1330.13 1788.61 1348.74 1737.56 1355.31 1684.38C1362.76 1624.15 1354.73 1561.18 1314.67 1488.26L1323.44 1483.45C1364.54 1558.25 1372.94 1623.35 1365.24 1685.61C1358.51 1740 1339.47 1792.21 1319.71 1846.4C1316.96 1853.94 1314.2 1861.51 1311.46 1869.13C1265.32 1997.44 1221.26 2133.67 1309.97 2295.16Z" fill="#805AD5"/>
<path fill-rule="evenodd" clip-rule="evenodd" d="M1835.8 2440.04C1702.61 2410.15 1559.85 2373.56 1468.83 2207.88C1377.82 2042.21 1423.49 1902.09 1469.69 1773.65L1469.69 1773.65C1472.55 1765.71 1475.41 1757.86 1478.25 1750.07C1497.96 1696.05 1516.48 1645.3 1523.07 1592.44C1530.58 1532.29 1522.61 1469.41 1482.56 1396.49L1491.33 1391.67C1532.42 1466.49 1540.76 1531.5 1533 1593.68C1526.25 1647.75 1507.3 1699.66 1487.63 1753.56C1484.79 1761.34 1481.93 1769.16 1479.1 1777.03C1432.94 1905.35 1388.88 2041.58 1477.6 2203.07C1566.31 2364.55 1704.93 2400.43 1837.98 2430.29C1845.88 2432.05 1853.74 2433.78 1861.57 2435.5C1917.92 2447.89 1972.2 2459.83 2021.72 2483.32C2078.4 2510.22 2128.84 2552.21 2169.95 2627.01L2161.19 2631.83C2121.11 2558.92 2072.27 2518.37 2017.43 2492.36C1969.02 2469.38 1915.94 2457.71 1859.46 2445.28C1851.64 2443.56 1843.75 2441.83 1835.8 2440.04L1835.8 2440.04ZM1618.75 2125.52C1707.47 2287 1846.09 2322.88 1979.14 2352.74C1987.04 2354.51 1994.9 2356.24 2002.72 2357.95C2059.07 2370.34 2113.36 2382.28 2162.88 2405.77C2219.56 2432.67 2269.99 2474.67 2311.11 2549.46L2302.34 2554.28C2262.27 2481.37 2213.42 2440.83 2158.59 2414.81C2110.17 2391.84 2057.09 2380.16 2000.62 2367.73C1992.79 2366.01 1984.9 2364.28 1976.95 2362.49L1976.95 2362.49C1843.76 2332.61 1701.01 2296.01 1609.99 2130.33C1518.97 1964.66 1564.64 1824.54 1610.85 1696.1L1610.85 1696.1C1613.61 1688.43 1616.37 1680.84 1619.12 1673.31C1638.92 1618.98 1657.53 1567.92 1664.11 1514.74C1671.56 1454.5 1663.54 1391.52 1623.51 1318.6L1632.27 1313.78C1673.34 1388.6 1681.74 1453.7 1674.03 1515.96C1667.31 1570.36 1648.27 1622.58 1628.5 1676.78C1625.76 1684.31 1623 1691.87 1620.26 1699.48C1574.1 1827.8 1530.04 1964.03 1618.75 2125.52ZM1759.91 2047.97C1848.63 2209.45 1987.24 2245.33 2120.28 2275.2C2128.18 2276.97 2136.06 2278.7 2143.89 2280.42C2200.23 2292.81 2254.51 2304.74 2304.02 2328.23C2360.7 2355.13 2411.13 2397.13 2452.23 2471.93L2443.46 2476.75C2403.41 2403.83 2354.56 2363.28 2299.73 2337.27C2251.33 2314.3 2198.25 2302.62 2141.78 2290.2C2133.95 2288.48 2126.05 2286.74 2118.09 2284.96L2118.09 2284.96C1984.92 2255.06 1842.16 2218.46 1751.15 2052.78C1660.13 1887.11 1705.8 1746.99 1751.99 1618.56L1751.99 1618.56C1754.75 1610.88 1757.52 1603.28 1760.27 1595.75C1780.07 1541.43 1798.68 1490.37 1805.25 1437.2C1812.7 1376.96 1804.67 1313.99 1764.61 1241.08L1773.38 1236.26C1814.47 1311.07 1822.87 1376.16 1815.18 1438.42C1808.45 1492.81 1789.41 1545.02 1769.65 1599.22C1766.9 1606.75 1764.14 1614.32 1761.4 1621.95C1715.25 1750.25 1671.19 1886.48 1759.91 2047.97Z" fill="#805AD5"/>
<path fill-rule="evenodd" clip-rule="evenodd" d="M707.006 1451.56C573.817 1421.67 431.062 1385.07 340.044 1219.4C249.026 1053.72 294.697 913.607 340.902 785.164L340.902 785.162C343.759 777.226 346.624 769.373 349.464 761.588C369.173 707.565 387.688 656.813 394.284 603.96C401.79 543.811 393.821 480.923 353.773 408.004L362.538 403.19C403.626 478.001 411.967 543.015 404.207 605.198C397.46 659.262 378.513 711.173 358.838 765.081C355.999 772.858 353.146 780.676 350.311 788.549C304.153 916.863 260.092 1053.1 348.809 1214.58C437.526 1376.07 576.14 1411.94 709.196 1441.8C717.091 1443.57 724.954 1445.3 732.777 1447.02C789.127 1459.41 843.412 1471.34 892.93 1494.84C949.61 1521.73 1000.05 1563.73 1041.16 1638.53L1032.4 1643.34C992.322 1570.44 943.476 1529.89 888.643 1503.87C840.229 1480.9 787.149 1469.22 730.672 1456.8C722.848 1455.08 714.958 1453.34 707.007 1451.56L707.006 1451.56ZM489.965 1137.03C578.682 1298.52 717.296 1334.39 850.352 1364.25C858.248 1366.02 866.111 1367.75 873.934 1369.47C930.284 1381.86 984.568 1393.79 1034.09 1417.29C1090.77 1444.18 1141.2 1486.18 1182.32 1560.98L1173.55 1565.79C1133.48 1492.89 1084.63 1452.34 1029.8 1426.32C981.386 1403.35 928.305 1391.67 871.828 1379.25C864.004 1377.53 856.115 1375.79 848.164 1374.01L848.162 1374.01C714.974 1344.12 572.219 1307.52 481.201 1141.85C390.183 976.175 435.853 836.058 482.058 707.615L482.058 707.614C484.819 699.946 487.586 692.355 490.329 684.827C510.131 630.498 528.743 579.434 535.321 526.252C542.771 466.017 534.749 403.041 494.717 330.112L503.484 325.3C544.553 400.119 552.946 465.215 545.245 527.48C538.517 581.875 519.476 634.092 499.712 688.295C496.967 695.822 494.209 703.386 491.468 711C445.309 839.315 401.248 975.548 489.965 1137.03ZM631.122 1059.49C719.838 1220.97 858.452 1256.85 991.49 1286.71C999.395 1288.49 1007.27 1290.22 1015.1 1291.94C1071.44 1304.32 1125.72 1316.26 1175.23 1339.75C1231.91 1366.64 1282.34 1408.64 1323.44 1483.45L1314.67 1488.26C1274.62 1415.35 1225.78 1374.8 1170.94 1348.78C1122.54 1325.81 1069.46 1314.14 1012.99 1301.72C1005.16 1299.99 997.263 1298.26 989.303 1296.47L989.301 1296.47C856.13 1266.57 713.375 1229.97 622.357 1064.3C531.339 898.626 577.01 758.51 623.197 630.077L623.197 630.075C625.961 622.399 628.73 614.801 631.477 607.265C651.277 552.943 669.886 501.886 676.462 448.712C683.91 388.479 675.88 325.508 635.822 252.594L644.586 247.779C685.683 322.584 694.085 387.676 686.386 449.94C679.661 504.326 660.622 556.538 640.859 610.733C638.112 618.268 635.35 625.84 632.606 633.462C586.465 761.767 542.405 898 631.122 1059.49Z" fill="#805AD5"/>
<path fill-rule="evenodd" clip-rule="evenodd" d="M1156.94 1204.37C1023.75 1174.48 880.999 1137.89 789.98 972.211C698.962 806.537 744.633 666.421 790.838 537.977L790.838 537.976C793.696 530.039 796.56 522.186 799.4 514.401C819.109 460.379 837.624 409.626 844.22 356.773C851.726 296.624 843.758 233.736 803.709 160.818L812.474 156.004C853.562 230.815 861.903 295.828 854.143 358.012C847.396 412.076 828.449 463.987 808.774 517.895C805.935 525.671 803.082 533.49 800.247 541.362C754.089 669.677 710.028 805.911 798.745 967.396C887.462 1128.88 1026.08 1164.76 1159.13 1194.62C1167.03 1196.38 1174.89 1198.11 1182.71 1199.83C1239.06 1212.22 1293.35 1224.16 1342.87 1247.65C1399.55 1274.55 1449.98 1316.54 1491.1 1391.34L1482.33 1396.16C1442.26 1323.25 1393.41 1282.7 1338.58 1256.69C1290.17 1233.71 1237.08 1222.04 1180.61 1209.61C1172.78 1207.89 1164.89 1206.15 1156.94 1204.37L1156.94 1204.37ZM939.901 889.848C1028.62 1051.33 1167.23 1087.21 1300.29 1117.07C1308.18 1118.84 1316.05 1120.56 1323.87 1122.28C1380.22 1134.67 1434.5 1146.61 1484.02 1170.1C1540.7 1197 1591.14 1239 1632.25 1313.79L1623.49 1318.61C1583.41 1245.7 1534.57 1205.16 1479.74 1179.14C1431.32 1156.17 1378.24 1144.49 1321.76 1132.06C1313.94 1130.34 1306.05 1128.61 1298.1 1126.82L1298.1 1126.82C1164.91 1096.94 1022.16 1060.34 931.137 894.663C840.119 728.988 885.789 588.872 931.994 460.429L931.995 460.428C934.755 452.76 937.522 445.169 940.265 437.641C960.067 383.311 978.679 332.248 985.257 279.066C992.707 218.831 984.685 155.855 944.654 82.9255L953.42 78.1135C994.489 152.933 1002.88 218.029 995.181 280.294C988.453 334.689 969.413 386.905 949.648 441.109C946.903 448.635 944.145 456.2 941.404 463.814C895.245 592.128 851.184 728.362 939.901 889.848ZM1081.06 812.299C1169.77 973.784 1308.39 1009.66 1441.43 1039.53C1449.33 1041.3 1457.2 1043.03 1465.04 1044.75C1521.38 1057.14 1575.66 1069.07 1625.17 1092.56C1681.85 1119.46 1732.28 1161.46 1773.38 1236.26L1764.61 1241.08C1724.55 1168.16 1675.71 1127.61 1620.88 1101.6C1572.47 1078.63 1519.4 1066.95 1462.93 1054.53C1455.1 1052.81 1447.2 1051.07 1439.24 1049.29L1439.24 1049.28C1306.07 1019.39 1163.31 982.788 1072.29 817.114C981.275 651.44 1026.95 511.324 1073.13 382.89L1073.13 382.889C1075.9 375.213 1078.67 367.615 1081.41 360.079C1101.21 305.757 1119.82 254.699 1126.4 201.526C1133.85 141.293 1125.82 78.3219 1085.76 5.40756L1094.52 0.592547C1135.62 75.3975 1144.02 140.49 1136.32 202.753C1129.6 257.14 1110.56 309.351 1090.8 363.547C1088.05 371.081 1085.29 378.654 1082.54 386.276C1036.4 514.581 992.341 650.814 1081.06 812.299Z" fill="#805AD5"/>
</svg>
