<svg width="63" height="70" viewBox="0 0 63 70" fill="none" xmlns="http://www.w3.org/2000/svg">
<path fill-rule="evenodd" clip-rule="evenodd" d="M8.28947 0C3.71132 0 0 3.73096 0 8.33333V61.6667C0 66.269 3.71132 70 8.28947 70H54.7105C59.2887 70 63 66.269 63 61.6667V8.33333C63 3.73096 59.2887 0 54.7105 0H8.28947ZM14.9211 18.3333C13.0898 18.3333 11.6053 19.8257 11.6053 21.6667C11.6053 23.5076 13.0898 25 14.9211 25H48.0789C49.9102 25 51.3947 23.5076 51.3947 21.6667C51.3947 19.8257 49.9102 18.3333 48.0789 18.3333H14.9211ZM11.6053 35C11.6053 33.159 13.0898 31.6667 14.9211 31.6667H48.0789C49.9102 31.6667 51.3947 33.159 51.3947 35C51.3947 36.841 49.9102 38.3333 48.0789 38.3333H14.9211C13.0898 38.3333 11.6053 36.841 11.6053 35ZM14.9211 45C13.0898 45 11.6053 46.4924 11.6053 48.3333C11.6053 50.1743 13.0898 51.6667 14.9211 51.6667H33.1579C34.9892 51.6667 36.4737 50.1743 36.4737 48.3333C36.4737 46.4924 34.9892 45 33.1579 45H14.9211Z" fill="#543FD3"/>
</svg>
