<svg width="577" height="730" viewBox="0 0 577 730" fill="none" xmlns="http://www.w3.org/2000/svg">
<path d="M817.518 653.236C778.852 582.855 722.92 574.573 660.928 560.679C597.51 546.442 530.481 529.177 487.664 451.24C444.847 373.302 466.223 307.469 488.218 246.308C509.739 186.534 532.745 134.884 494.079 64.5037C455.414 -5.87694 399.481 -14.1593 337.49 -28.0529C274.072 -42.2904 207.043 -59.5556 164.226 -137.493C121.409 -215.43 142.785 -281.263 164.78 -342.425C186.3 -402.198 209.307 -453.848 170.641 -524.229M750.281 690.175C711.598 619.803 655.674 611.516 593.682 597.623C530.257 583.39 463.228 566.125 420.411 488.187C377.593 410.25 398.97 344.417 420.973 283.251C442.493 223.477 465.492 171.832 426.851 101.438M359.698 138.549C398.355 208.934 375.24 260.425 353.719 320.199C331.716 381.365 310.34 447.198 353.157 525.135C395.974 603.073 463.003 620.338 526.429 634.571C588.421 648.464 644.344 656.751 683.027 727.123M426.843 101.442C388.16 31.071 332.236 22.7839 270.244 8.89032C206.819 -5.34256 139.79 -22.6077 96.9725 -100.545C54.1553 -178.482 75.5315 -244.316 97.5347 -305.481C119.055 -365.255 142.053 -416.9 103.413 -487.295M36.26 -450.183C74.9173 -379.798 51.8014 -328.307 30.281 -268.534C8.27777 -207.368 -13.0984 -141.535 29.7188 -63.5972C72.536 14.3401 139.565 31.6053 202.991 45.8382C264.982 59.7318 320.906 68.0188 359.589 138.39M1031.89 535.465C993.223 465.084 937.291 456.802 875.299 442.908C811.881 428.671 744.853 411.406 702.035 333.468C659.218 255.531 680.594 189.698 702.589 128.537C724.11 68.7631 747.116 17.1132 708.451 -53.2674C669.785 -123.648 613.853 -131.93 551.861 -145.824C488.443 -160.062 421.414 -177.327 378.597 -255.264C335.78 -333.201 357.156 -399.035 379.151 -460.196C400.671 -519.969 423.678 -571.619 385.012 -642M964.652 572.404C925.969 502.032 870.045 493.745 808.054 479.852C744.628 465.619 677.599 448.354 634.782 370.416C591.965 292.479 613.341 226.646 635.344 165.48C656.864 105.706 679.863 54.061 641.222 -16.3334M574.069 20.7779C612.727 91.1631 589.611 142.654 568.09 202.428C546.087 263.594 524.711 329.427 567.528 407.364C610.345 485.301 677.374 502.567 740.8 516.8C802.792 530.693 858.716 538.98 897.398 609.352M641.214 -16.3288C602.531 -86.7002 546.607 -94.9872 484.615 -108.881C421.19 -123.114 354.161 -140.379 311.344 -218.316C268.526 -296.253 289.903 -362.087 311.906 -423.253C333.426 -483.026 356.424 -534.671 317.784 -605.066M250.631 -567.955C289.288 -497.569 266.173 -446.078 244.652 -386.305C222.649 -325.139 201.273 -259.306 244.09 -181.368C286.907 -103.431 353.936 -86.1658 417.362 -71.9329C479.353 -58.0393 535.277 -49.7523 573.96 20.6191" stroke="url(#paint0_linear_418_31)" stroke-width="10"/>
<defs>
<linearGradient id="paint0_linear_418_31" x1="233.692" y1="-558.867" x2="599" y2="678" gradientUnits="userSpaceOnUse">
<stop offset="0.341667" stop-color="#543FD3"/>
<stop offset="0.966667" stop-color="#EEECFB"/>
</linearGradient>
</defs>
</svg>
