<svg width="22" height="22" viewBox="0 0 22 22" fill="none" xmlns="http://www.w3.org/2000/svg">
<path fill-rule="evenodd" clip-rule="evenodd" d="M11.0993 0C9.54905 1.21865e-07 8.29232 1.21426 8.29232 2.71213L10.1224 15.2225L5.25082 11.6343C4.15463 10.5752 1.91834 10.5752 0.822144 11.6343C-0.274048 12.6935 -0.274048 14.4107 0.822145 15.4699L9.11447 21.2056C10.2107 22.2648 11.9879 22.2648 13.0841 21.2056L21.1779 15.4699C22.274 14.4107 22.274 12.6935 21.1779 11.6343C20.0817 10.5752 18.3044 10.5752 17.2082 11.6343L11.8938 15.2225L13.9063 2.71213C13.9063 1.21426 12.6496 -1.21865e-07 11.0993 0Z" fill="#543FD3"/>
</svg>
