<svg width="184" height="185" viewBox="0 0 184 185" fill="none" xmlns="http://www.w3.org/2000/svg">
<path d="M90 27H40C18.4609 27 1 44.4609 1 66V145C1 166.539 18.4609 184 40 184H119C140.539 184 158 166.539 158 145V94C158 90.134 154.866 87 151 87C147.134 87 144 90.134 144 94V145C144 158.807 132.807 170 119 170H40C26.1929 170 15 158.807 15 145V66C15 52.1929 26.1929 41 40 41H90C93.866 41 97 37.866 97 34C97 30.134 93.866 27 90 27Z" fill="#543FD3" stroke="#543FD3" stroke-width="2"/>
<path fill-rule="evenodd" clip-rule="evenodd" d="M64.4824 122.909C68.3183 126.745 74.7692 126.513 78.891 122.391L139.645 48.0397L141.825 69.9674C141.623 75.5943 147.156 81.1277 152.783 80.9256C158.41 80.7234 163.136 75.998 163.338 70.3711L158.603 34.0694C158.805 28.4424 154.407 24.0448 148.78 24.2469L112.97 20.0036C107.343 20.2057 102.618 24.9311 102.416 30.558C102.214 36.185 106.611 40.5826 112.238 40.3804L135.261 43.6564L65 108.5C60.8782 112.622 60.6465 119.073 64.4824 122.909Z" fill="#543FD3"/>
</svg>
