<svg width="72" height="78" viewBox="0 0 72 78" fill="none" xmlns="http://www.w3.org/2000/svg">
<rect y="67" width="72" height="11" rx="5.5" fill="#AEA2FF"/>
<path fill-rule="evenodd" clip-rule="evenodd" d="M36.643 58C39.4812 58 41.782 55.7614 41.782 52.9999L41.782 17.0714L57.2271 33.285C59.234 35.2376 62.4879 35.2376 64.4948 33.285C66.5017 31.3323 66.5017 28.1664 64.4948 26.2138L40.2768 1.4645C38.2699 -0.488163 35.016 -0.488163 33.0091 1.4645L7.5052 26.2138C5.49827 28.1664 5.49827 31.3323 7.5052 33.285C9.51213 35.2376 12.766 35.2376 14.7729 33.285L31.5039 17.0714L31.5039 52.9999C31.5039 55.7614 33.8047 58 36.643 58Z" fill="#AEA2FF"/>
</svg>
